<svg width="93" height="55" viewBox="0 0 93 55" fill="none" xmlns="http://www.w3.org/2000/svg">
<path fill-rule="evenodd" clip-rule="evenodd" d="M84.753 18.3401V9.48284C86.5399 8.75067 88.0488 8.38458 89.2847 8.38458C90.4691 8.38458 91.3806 8.70491 92.0295 9.34048C92.3524 9.66368 92.605 10.0488 92.7715 10.472C92.938 10.8952 93.0149 11.3477 92.9976 11.8014V28.9007C91.2107 29.6329 89.7018 29.999 88.4659 29.999C88.0696 30.0093 87.6753 29.9408 87.3064 29.7975C86.9375 29.6542 86.6015 29.4392 86.3185 29.1651C85.7092 28.5489 85.3065 27.7625 85.165 26.9127C83.6819 28.9719 81.7147 29.999 79.2738 29.999C76.8534 29.999 74.979 29.3075 73.6452 27.9296C72.3115 26.5466 71.6472 24.584 71.6472 22.0366V9.48284C73.4341 8.75067 74.9429 8.38458 76.1788 8.38458C77.3633 8.38458 78.2747 8.70491 78.9236 9.34048C79.2466 9.66368 79.4991 10.0488 79.6656 10.472C79.8321 10.8952 79.9091 11.3477 79.8917 11.8014V20.6536C79.8917 22.6366 80.6024 23.623 82.034 23.623C82.997 23.623 83.687 23.2569 84.1144 22.5247C84.5419 21.7925 84.753 20.3994 84.753 18.3401V18.3401Z" fill="#1D8FF3"/>
<path fill-rule="evenodd" clip-rule="evenodd" d="M66.739 8.13507C67.8359 8.13507 68.9379 8.37913 70.0348 8.87233L67.702 15.9907C66.9708 15.4868 66.1012 15.2154 65.2095 15.2128C64.1384 15.2128 63.3557 15.6551 62.8562 16.5398C62.3618 17.4296 62.1146 19.0821 62.1146 21.5125V29.4902H54.0709V9.23842C55.8114 8.50116 57.2894 8.13507 58.4944 8.13507C59.3801 8.13507 60.1011 8.42997 60.6676 9.0147C61.2623 9.67246 61.6396 10.4937 61.749 11.3688C62.9849 9.213 64.6482 8.13507 66.739 8.13507Z" fill="#1D8FF3"/>
<path fill-rule="evenodd" clip-rule="evenodd" d="M41.2744 14.5623C40.5637 14.5623 39.9664 14.842 39.472 15.3962C38.9295 16.073 38.5793 16.8803 38.4575 17.7351C38.7819 17.7554 39.2557 17.7707 39.884 17.7707C41.9541 17.7707 42.984 17.1503 42.984 15.9046C42.984 15.0097 42.4176 14.5623 41.2744 14.5623ZM42.2528 23.9891C44.1635 24.01 46.0377 23.4721 47.6393 22.4434L50.8682 27.4415C48.0896 29.1175 44.896 30.0026 41.64 29.999C38.1022 29.999 35.3523 29.0838 33.3903 27.2533C31.4334 25.428 30.455 22.8654 30.455 19.5604C30.455 16.0673 31.4643 13.3318 33.4932 11.354C35.5222 9.37607 38.3597 8.38458 42.0056 8.38458C44.807 8.38458 46.9853 9.00998 48.5405 10.2557C50.0854 11.5014 50.8682 13.2352 50.8682 15.4572C50.8682 17.5673 49.9052 19.2147 47.9844 20.3892C46.0687 21.5688 43.4063 22.1586 40.0024 22.1586C39.4359 22.1586 38.9982 22.1434 38.6995 22.1179C39.1888 23.3637 40.3732 23.9891 42.2528 23.9891V23.9891Z" fill="#1D8FF3"/>
<path fill-rule="evenodd" clip-rule="evenodd" d="M22.2568 0C23.642 0 24.7389 0.386426 25.5526 1.14911C25.9573 1.5308 26.2757 1.99267 26.4869 2.50441C26.6981 3.01615 26.7974 3.5662 26.7782 4.11848V29.4904H18.2606V17.979H8.51752V29.4904H0V1.09318C1.51915 0.366088 2.8529 0 3.99613 0C5.38138 0 6.47826 0.386426 7.2919 1.14911C7.69688 1.53061 8.01547 1.99244 8.22671 2.50423C8.43795 3.01602 8.53706 3.56616 8.51752 4.11848V11.5928H18.2606V1.09318C19.7746 0.366088 21.1136 0 22.2568 0Z" fill="#1D8FF3"/>
<path d="M59.7642 44.8495V48.6985C59.6211 48.8877 59.3973 49.0954 59.0927 49.3216C58.7927 49.5431 58.3935 49.7346 57.8951 49.8962C57.3966 50.0577 56.7759 50.1385 56.0328 50.1385C55.4006 50.1385 54.8214 50.0323 54.2952 49.82C53.7691 49.6031 53.3145 49.287 52.9314 48.8716C52.553 48.4562 52.2599 47.9509 52.0523 47.3555C51.8446 46.7555 51.7407 46.0725 51.7407 45.3064V44.6072C51.7407 43.8457 51.8353 43.1673 52.0246 42.5719C52.2184 41.9719 52.4953 41.4643 52.8553 41.0489C53.2153 40.6335 53.6491 40.3197 54.1568 40.1074C54.6691 39.8905 55.2483 39.782 55.8944 39.782C56.7205 39.782 57.4035 39.9205 57.9435 40.1974C58.4881 40.4697 58.9081 40.8481 59.2035 41.3327C59.4988 41.8173 59.6857 42.3711 59.7642 42.9942H58.0612C58.0058 42.6434 57.8974 42.3296 57.7358 42.0527C57.5789 41.7758 57.3528 41.5589 57.0574 41.402C56.7666 41.2404 56.3882 41.1597 55.9221 41.1597C55.5206 41.1597 55.1675 41.2358 54.8629 41.3881C54.5583 41.5404 54.3045 41.7642 54.1014 42.0596C53.9029 42.355 53.7529 42.715 53.6514 43.1396C53.5499 43.5642 53.4991 44.0487 53.4991 44.5933V45.3064C53.4991 45.8602 53.5568 46.3517 53.6722 46.7809C53.7922 47.2101 53.9629 47.5724 54.1845 47.8678C54.4106 48.1632 54.6852 48.387 55.0083 48.5393C55.3313 48.687 55.6959 48.7608 56.1021 48.7608C56.499 48.7608 56.8243 48.7285 57.0782 48.6639C57.332 48.5947 57.5328 48.5139 57.6804 48.4216C57.8327 48.3247 57.9504 48.2324 58.0335 48.1447V46.144H55.9359V44.8495H59.7642ZM67.372 39.9205V50H65.6344V39.9205H67.372ZM75.0975 39.9205V50H73.3599V39.9205H75.0975ZM79.2096 44.3303V45.7079H74.6545V44.3303H79.2096ZM79.7842 39.9205V41.305H74.6545V39.9205H79.7842ZM90.2996 47.404C90.2996 47.1963 90.2673 47.0117 90.2027 46.8502C90.1427 46.6886 90.0342 46.5409 89.8773 46.4071C89.7204 46.2733 89.4989 46.144 89.2127 46.0194C88.9312 45.8902 88.5712 45.7587 88.1328 45.6248C87.6528 45.4771 87.2097 45.3133 86.8036 45.1333C86.4021 44.9487 86.0513 44.7364 85.7513 44.4964C85.4514 44.2518 85.2183 43.9726 85.0521 43.6588C84.886 43.3403 84.8029 42.9734 84.8029 42.5581C84.8029 42.1473 84.8883 41.7735 85.0591 41.4366C85.2344 41.0997 85.4814 40.8089 85.7998 40.5643C86.1229 40.3151 86.5036 40.1236 86.9421 39.9897C87.3805 39.8513 87.8651 39.782 88.3958 39.782C89.1435 39.782 89.7873 39.9205 90.3273 40.1974C90.8719 40.4743 91.2895 40.8458 91.5803 41.312C91.8757 41.7781 92.0233 42.2927 92.0233 42.8557H90.2996C90.2996 42.5234 90.228 42.2304 90.085 41.9765C89.9465 41.7181 89.7342 41.515 89.4481 41.3673C89.1666 41.2197 88.8089 41.1458 88.3751 41.1458C87.9643 41.1458 87.6228 41.2081 87.3505 41.3327C87.0782 41.4573 86.8751 41.6258 86.7413 41.8381C86.6075 42.0504 86.5405 42.2904 86.5405 42.5581C86.5405 42.7473 86.5844 42.9203 86.6721 43.0773C86.7598 43.2296 86.8936 43.3726 87.0736 43.5065C87.2536 43.6357 87.4797 43.758 87.752 43.8734C88.0243 43.9888 88.3451 44.0995 88.7143 44.2057C89.2727 44.3718 89.7596 44.5564 90.175 44.7595C90.5903 44.9579 90.9365 45.1841 91.2134 45.4379C91.4903 45.6917 91.698 45.9802 91.8364 46.3033C91.9749 46.6217 92.0441 46.984 92.0441 47.3901C92.0441 47.8147 91.9587 48.1978 91.788 48.5393C91.6172 48.8762 91.3726 49.1647 91.0542 49.4046C90.7403 49.64 90.3619 49.8223 89.9188 49.9515C89.4804 50.0762 88.9912 50.1385 88.4512 50.1385C87.9666 50.1385 87.4889 50.0738 87.0182 49.9446C86.5521 49.8154 86.1275 49.6192 85.7444 49.3562C85.3614 49.0885 85.0568 48.7562 84.8306 48.3593C84.6045 47.9578 84.4914 47.4894 84.4914 46.954H86.229C86.229 47.2817 86.2844 47.5609 86.3952 47.7916C86.5105 48.0224 86.6698 48.2116 86.8728 48.3593C87.0759 48.5024 87.3113 48.6085 87.5789 48.6778C87.8512 48.747 88.142 48.7816 88.4512 48.7816C88.8573 48.7816 89.1966 48.7239 89.4689 48.6085C89.7458 48.4931 89.9534 48.3316 90.0919 48.1239C90.2304 47.9163 90.2996 47.6763 90.2996 47.404Z" fill="#1D8FF3"/>
<path fill-rule="evenodd" clip-rule="evenodd" d="M42 46L-1.74846e-07 46L0 44L42 44L42 46Z" fill="#1D8FF3"/>
</svg>
